<svg xmlns="http://www.w3.org/2000/svg" viewBox="0 0 1200 900" width="1200" height="900" role="img">
<defs>
    <linearGradient id="g1" x1="0" y1="0" x2="1" y2="1"><stop offset="0" stop-color="#1d5cff"/><stop offset="1" stop-color="#00c2b2"/></linearGradient>
  </defs>
  
  <rect width="1200" height="900" fill="#ffffff"/>
  <rect width="1200" height="54" fill="#f7f9fc"/>
  <circle cx="26" cy="27" r="6" fill="#ffb4ab"/>
  <circle cx="46" cy="27" r="6" fill="#ffdfa1"/>
  <circle cx="66" cy="27" r="6" fill="#a8e6bd"/>
  <rect x="96" y="16" width="240" height="22" rx="11" fill="#eef2f8"/>
  <text x="120" y="31" font-family="Arial,sans-serif" font-size="11" fill="#8494ad">www.suaempresa.com.br</text>
  <line x1="0" y1="54" x2="1200" y2="54" stroke="#eef2f8" stroke-width="1"/>
  
  <rect x="48" y="18" width="122" height="18" rx="5" fill="url(#g1)"/>
  <text x="182" y="32" font-family="Arial,sans-serif" font-size="12" font-weight="700" fill="#0a1a3c" letter-spacing="2">INOVE</text>
  <rect x="900" y="22" width="62" height="10" rx="5" fill="#eef2f8"/>
  <rect x="978" y="22" width="62" height="10" rx="5" fill="#eef2f8"/>
  <rect x="1056" y="22" width="62" height="10" rx="5" fill="#eef2f8"/>
  <rect x="1140" y="16" width="60" height="22" rx="11" fill="url(#g1)"/>
  <rect x="0" y="54" width="1200" height="330" fill="url(#g1)" opacity=".08"/>
  <rect x="60" y="128" width="400" height="26" rx="7" fill="#0a1a3c"/>
  <rect x="60" y="168" width="320" height="26" rx="7" fill="#1d5cff"/>
  <rect x="60" y="222" width="470" height="9" rx="4.5" fill="#8494ad" opacity=".5"/>
  <rect x="60" y="242" width="400" height="9" rx="4.5" fill="#8494ad" opacity=".38"/>
  <rect x="60" y="282" width="150" height="42" rx="21" fill="url(#g1)"/>
  <rect x="820" y="110" width="320" height="230" rx="16" fill="#ffffff" stroke="#e3eaf4"/>
  <rect x="844" y="134" width="180" height="10" rx="5" fill="#0a1a3c" opacity=".5"/>
  <rect x="844" y="162" width="240" height="8" rx="4" fill="#8494ad" opacity=".32"/><rect x="844" y="192" width="214" height="8" rx="4" fill="#8494ad" opacity=".32"/><rect x="844" y="222" width="188" height="8" rx="4" fill="#8494ad" opacity=".32"/><rect x="844" y="252" width="162" height="8" rx="4" fill="#8494ad" opacity=".32"/>
  <rect x="844" y="290" width="130" height="30" rx="15" fill="url(#g1)" opacity=".85"/>
  <text x="60" y="440" font-family="Arial,sans-serif" font-size="14" font-weight="700" fill="#0a1a3c">NOSSOS SERVIÇOS</text>
  <rect x="60" y="466" width="340" height="176" rx="14" fill="#ffffff" stroke="#e3eaf4"/>
  <rect x="84" y="492" width="46" height="46" rx="12" fill="url(#g1)" opacity=".16"/>
  <circle cx="107" cy="515" r="11" fill="#1d5cff" opacity=".55"/>
  <rect x="84" y="556" width="150" height="11" rx="5.5" fill="#0a1a3c" opacity=".75"/>
  <rect x="84" y="578" width="284" height="7" rx="3.5" fill="#8494ad" opacity=".35"/>
  <rect x="84" y="594" width="240" height="7" rx="3.5" fill="#8494ad" opacity=".28"/>
  <rect x="84" y="614" width="96" height="9" rx="4.5" fill="#1d5cff" opacity=".45"/><rect x="426" y="466" width="340" height="176" rx="14" fill="#ffffff" stroke="#e3eaf4"/>
  <rect x="450" y="492" width="46" height="46" rx="12" fill="url(#g1)" opacity=".16"/>
  <circle cx="473" cy="515" r="11" fill="#1d5cff" opacity=".55"/>
  <rect x="450" y="556" width="150" height="11" rx="5.5" fill="#0a1a3c" opacity=".75"/>
  <rect x="450" y="578" width="284" height="7" rx="3.5" fill="#8494ad" opacity=".35"/>
  <rect x="450" y="594" width="240" height="7" rx="3.5" fill="#8494ad" opacity=".28"/>
  <rect x="450" y="614" width="96" height="9" rx="4.5" fill="#1d5cff" opacity=".45"/><rect x="792" y="466" width="340" height="176" rx="14" fill="#ffffff" stroke="#e3eaf4"/>
  <rect x="816" y="492" width="46" height="46" rx="12" fill="url(#g1)" opacity=".16"/>
  <circle cx="839" cy="515" r="11" fill="#1d5cff" opacity=".55"/>
  <rect x="816" y="556" width="150" height="11" rx="5.5" fill="#0a1a3c" opacity=".75"/>
  <rect x="816" y="578" width="284" height="7" rx="3.5" fill="#8494ad" opacity=".35"/>
  <rect x="816" y="594" width="240" height="7" rx="3.5" fill="#8494ad" opacity=".28"/>
  <rect x="816" y="614" width="96" height="9" rx="4.5" fill="#1d5cff" opacity=".45"/><rect x="60" y="666" width="340" height="176" rx="14" fill="#ffffff" stroke="#e3eaf4"/>
  <rect x="84" y="692" width="46" height="46" rx="12" fill="url(#g1)" opacity=".16"/>
  <circle cx="107" cy="715" r="11" fill="#1d5cff" opacity=".55"/>
  <rect x="84" y="756" width="150" height="11" rx="5.5" fill="#0a1a3c" opacity=".75"/>
  <rect x="84" y="778" width="284" height="7" rx="3.5" fill="#8494ad" opacity=".35"/>
  <rect x="84" y="794" width="240" height="7" rx="3.5" fill="#8494ad" opacity=".28"/>
  <rect x="84" y="814" width="96" height="9" rx="4.5" fill="#1d5cff" opacity=".45"/><rect x="426" y="666" width="340" height="176" rx="14" fill="#ffffff" stroke="#e3eaf4"/>
  <rect x="450" y="692" width="46" height="46" rx="12" fill="url(#g1)" opacity=".16"/>
  <circle cx="473" cy="715" r="11" fill="#1d5cff" opacity=".55"/>
  <rect x="450" y="756" width="150" height="11" rx="5.5" fill="#0a1a3c" opacity=".75"/>
  <rect x="450" y="778" width="284" height="7" rx="3.5" fill="#8494ad" opacity=".35"/>
  <rect x="450" y="794" width="240" height="7" rx="3.5" fill="#8494ad" opacity=".28"/>
  <rect x="450" y="814" width="96" height="9" rx="4.5" fill="#1d5cff" opacity=".45"/><rect x="792" y="666" width="340" height="176" rx="14" fill="#ffffff" stroke="#e3eaf4"/>
  <rect x="816" y="692" width="46" height="46" rx="12" fill="url(#g1)" opacity=".16"/>
  <circle cx="839" cy="715" r="11" fill="#1d5cff" opacity=".55"/>
  <rect x="816" y="756" width="150" height="11" rx="5.5" fill="#0a1a3c" opacity=".75"/>
  <rect x="816" y="778" width="284" height="7" rx="3.5" fill="#8494ad" opacity=".35"/>
  <rect x="816" y="794" width="240" height="7" rx="3.5" fill="#8494ad" opacity=".28"/>
  <rect x="816" y="814" width="96" height="9" rx="4.5" fill="#1d5cff" opacity=".45"/>
</svg>