<svg xmlns="http://www.w3.org/2000/svg" viewBox="0 0 800 800" width="800" height="800" role="img">
<defs>
    <linearGradient id="g1" x1="0" y1="0" x2="1" y2="1"><stop offset="0" stop-color="#7c3aed"/><stop offset="1" stop-color="#00c2b2"/></linearGradient>
    <linearGradient id="g2" x1="0" y1="0" x2="1" y2="1"><stop offset="0" stop-color="#7c3aed"/><stop offset="1" stop-color="#00c2b2"/></linearGradient>
    <linearGradient id="gf" x1="0" y1="0" x2="0" y2="1"><stop offset="0" stop-color="#7c3aed" stop-opacity=".9"/><stop offset="1" stop-color="#00c2b2"/></linearGradient>
  </defs>
  <rect width="800" height="800" fill="#f7f9fc"/>
  <rect width="800" height="800" fill="#ffffff"/>
  <text x="60" y="82" font-family="Arial,sans-serif" font-size="26" font-weight="700" fill="#0a1a3c">Identidade Visual</text>
  <text x="60" y="116" font-family="Arial,sans-serif" font-size="15" fill="#8494ad">Paleta, tipografia e aplicações</text>
  <rect x="60" y="152" width="100" height="100" rx="16" fill="#7c3aed" stroke="none"/><rect x="176" y="152" width="100" height="100" rx="16" fill="#00c2b2" stroke="none"/><rect x="292" y="152" width="100" height="100" rx="16" fill="#0a1a3c" stroke="none"/><rect x="408" y="152" width="100" height="100" rx="16" fill="#061029" stroke="none"/><rect x="524" y="152" width="100" height="100" rx="16" fill="#5a6b8a" stroke="none"/><rect x="640" y="152" width="100" height="100" rx="16" fill="#f4f7fc" stroke="#e3eaf4"/>
  <rect x="60" y="290" width="680" height="150" rx="18" fill="#f7f9fc"/>
  <text x="90" y="348" font-family="Arial,sans-serif" font-size="46" font-weight="700" fill="#0a1a3c" letter-spacing="1">Aa Bb Cc</text>
  <text x="90" y="392" font-family="Arial,sans-serif" font-size="16" fill="#8494ad">Tipografia principal · Sora / Inter</text>
  <rect x="60" y="472" width="320" height="270" rx="18" fill="url(#g1)"/>
  <circle cx="220" cy="580" r="56" fill="#ffffff" opacity=".28"/>
  <rect x="120" y="666" width="200" height="12" rx="6" fill="#ffffff" opacity=".8"/>
  <rect x="420" y="472" width="320" height="124" rx="18" fill="#ffffff" stroke="#e3eaf4"/>
  <rect x="444" y="496" width="70" height="70" rx="18" fill="url(#g1)"/>
  <rect x="534" y="512" width="180" height="10" rx="5" fill="#0a1a3c" opacity=".45"/>
  <rect x="534" y="536" width="130" height="8" rx="4" fill="#8494ad" opacity=".4"/>
  <rect x="420" y="618" width="320" height="124" rx="18" fill="#0a1a3c"/>
  <rect x="444" y="642" width="70" height="70" rx="18" fill="url(#g1)"/>
  <rect x="534" y="658" width="180" height="10" rx="5" fill="#ffffff" opacity=".55"/>
  <rect x="534" y="682" width="130" height="8" rx="4" fill="#ffffff" opacity=".35"/>
</svg>